<svg width="143" height="77" viewBox="0 0 143 77" fill="none" xmlns="http://www.w3.org/2000/svg">
<path d="M0.693115 47.2034H3.23431C3.23431 47.3554 3.23431 47.5834 3.23431 47.7355C3.23431 50.3959 3.23431 53.1323 3.23431 55.7927V56.3248H14.9392C14.9392 55.3366 14.9392 54.3485 14.9392 53.3603C14.9392 52.3722 14.9392 51.308 14.9392 50.3199V47.3554C15.2472 47.2794 16.9414 47.2794 17.4804 47.3554V69.7029H14.9392V58.6812H3.31132V69.6269H0.693115V47.2034Z" fill="white"/>
<path d="M142.384 64.078C142.384 64.1541 142.307 64.1541 142.307 64.2301C141.845 66.8905 140.382 68.6388 137.841 69.5509C135.222 70.463 132.758 70.159 130.602 68.4107C129.293 67.3465 128.6 65.9783 128.215 64.3821C128.215 64.3821 128.215 64.3061 128.215 64.2301C128.985 64.002 129.832 63.774 130.602 63.546C130.679 63.774 130.679 63.926 130.756 64.078C131.218 65.7503 132.219 66.9665 133.913 67.4986C136.377 68.2587 139.15 66.7385 139.766 64.3061C140.151 62.8619 139.843 61.2656 138.303 60.2014C137.687 59.8214 137.071 59.4413 136.454 59.1373C135.53 58.6812 134.529 58.3011 133.605 57.8451C132.758 57.465 131.988 57.0089 131.295 56.4008C129.909 55.2607 129.293 53.7404 129.447 51.9922C129.601 49.7878 130.833 48.1916 132.835 47.3554C135.299 46.2913 137.687 46.5193 139.843 48.1156C140.613 48.6476 141.152 49.4078 141.614 50.2439C140.921 50.7 140.305 51.08 139.612 51.5361C139.458 51.3841 139.381 51.156 139.304 51.004C138.765 50.1679 137.995 49.4838 136.994 49.2557C135.607 48.8757 134.221 49.0277 133.143 50.0159C132.142 50.852 131.757 51.9161 131.988 53.1323C132.065 53.7404 132.45 54.1965 132.912 54.5766C133.374 55.0326 133.913 55.3367 134.452 55.5647C135.299 55.9448 136.223 56.3248 137.071 56.7809C137.841 57.161 138.611 57.541 139.381 57.9211C140.074 58.3011 140.69 58.7572 141.152 59.3653C141.768 60.1254 142.23 60.8855 142.307 61.8737C142.307 61.9497 142.384 62.0257 142.384 62.0257V64.078Z" fill="white"/>
<path d="M121.977 64.534V47.2793C122.285 47.2033 123.98 47.2033 124.519 47.2793V70.539C124.365 70.539 124.288 70.3869 124.211 70.3109C122.208 68.1826 120.129 66.1303 118.127 64.0019C114.508 60.2774 110.889 56.4768 107.192 52.7522C107.115 52.6762 107.038 52.6002 106.884 52.4481C106.807 53.0562 106.884 53.5883 106.884 54.0444C106.884 54.5765 106.884 55.0325 106.884 55.5646V57.1609V58.6811V60.2774V61.7976V63.3938V64.9141V66.5103V68.0306V69.6268H104.42C104.343 69.3228 104.343 46.9753 104.42 46.3672C104.42 46.3672 104.42 46.3672 104.497 46.3672L104.574 46.4432C110.35 52.4481 116.202 58.4531 121.977 64.458C121.9 64.458 121.9 64.458 121.977 64.534Z" fill="white"/>
<path d="M88.9419 49.1037C87.8638 49.1037 86.8627 49.2557 85.8616 49.6358C80.3172 51.5361 77.853 57.9211 80.7793 62.9379C83.0894 66.9665 87.9408 68.7148 92.2531 67.0425C96.3345 65.4462 98.7986 61.1896 98.1056 56.8569C97.2585 52.4482 93.4082 49.1797 88.9419 49.1037ZM100.724 58.3771C100.724 63.926 96.7195 68.7148 91.2521 69.7789C86.2467 70.7671 81.1643 68.5627 78.6231 64.3061C75.4658 59.0612 77.006 52.2962 82.1654 48.8757C84.3985 47.3554 86.8627 46.6713 89.5579 46.8233C95.2564 47.1274 99.6457 51.308 100.57 56.4008C100.647 56.7049 100.647 57.0089 100.724 57.313C100.647 57.693 100.647 58.0731 100.724 58.3771Z" fill="white"/>
<path d="M32.8816 49.1037C32.1885 49.1797 31.4185 49.2557 30.7254 49.4077C25.335 50.6999 22.2547 56.3248 24.0259 61.4936C25.643 66.2063 30.7254 68.7907 35.4998 67.3465C40.0431 65.9783 42.8923 61.4176 42.0453 56.7808C41.2752 52.2961 37.3479 49.1037 32.8816 49.1037ZM33.0356 70.0069C27.4911 70.0069 22.7168 66.4343 21.4077 61.3416C20.0216 56.0967 22.4858 50.6999 27.2601 48.1915C34.0367 44.619 42.4303 48.2675 44.3554 55.5647C45.9726 61.7976 42.1993 67.9546 36.0388 69.6268C35.0377 69.9309 33.9596 70.0829 33.0356 70.0069Z" fill="white"/>
<path d="M50.747 57.617C51.5941 57.541 52.4411 57.541 53.2882 57.465C53.9813 57.389 54.5973 57.237 55.2133 57.0089C56.2914 56.5529 56.9075 55.7167 57.1385 54.6526C57.2925 53.8925 57.2925 53.0563 57.1385 52.2962C56.9845 51.5361 56.5225 50.852 55.8294 50.3959C55.4444 50.1679 54.9823 49.9398 54.5203 49.8638C53.6732 49.6358 52.7492 49.6358 51.9021 49.5598C51.5171 49.5598 51.132 49.5598 50.67 49.5598L50.747 57.617ZM50.747 59.8974V69.6269C50.439 69.7029 48.6678 69.7029 48.2058 69.6269V47.2794C48.3598 47.2794 48.4368 47.2794 48.5138 47.2794C49.7459 47.2794 51.055 47.2794 52.2871 47.2794C53.6732 47.2794 54.9823 47.5075 56.2144 47.9635C57.4465 48.4196 58.4476 49.1797 59.0636 50.3959C59.4487 51.08 59.6027 51.7641 59.6797 52.5242C59.8337 53.6644 59.7567 54.8046 59.2947 55.8688C58.5246 57.8451 57.0615 58.9852 54.9823 59.4413C54.6743 59.5173 54.4433 59.5173 54.1353 59.5933C54.1353 59.5933 54.1353 59.5933 54.0583 59.6694C56.4454 62.9379 58.8326 66.2824 61.2198 69.6269C61.0658 69.6269 60.9888 69.6269 60.9888 69.6269C60.1417 69.6269 59.2947 69.6269 58.4476 69.6269C58.2166 69.6269 58.0626 69.4749 57.9856 69.3229C56.9075 67.7266 55.7524 66.1304 54.6743 64.6101C53.6732 63.0899 52.5951 61.6457 51.5941 60.1254C51.286 59.7454 51.2861 59.7454 50.747 59.8974Z" fill="white"/>
<path d="M75.4657 47.2794V49.5598C74.5417 49.6358 73.6176 49.5598 72.6935 49.5598C71.7695 49.5598 70.9224 49.5598 69.9213 49.5598C69.9213 49.7878 69.9213 49.9398 69.9213 50.0919C69.9213 56.4008 69.9213 62.7098 69.9213 69.0948V69.6269H67.3801V49.5598C66.9181 49.4838 66.456 49.5598 65.994 49.5598C65.532 49.5598 65.0699 49.5598 64.6079 49.5598H63.2218H61.8357V47.2794H75.4657Z" fill="white"/>
<path d="M96.1803 12.0099H93.7161V16.8746H96.1803V12.0099Z" fill="white"/>
<path d="M102.726 30.1767V11.1737H92.7151V10.6417C92.7151 7.52517 92.7151 4.33267 92.7151 1.21619H78.392C78.392 1.44422 78.392 1.59625 78.392 1.74827C78.392 6.30898 78.392 10.8697 78.392 15.4304V15.9625H77.6219V4.78874H75.6968V2.96446H61.2967V4.78874H59.0635V6.53702C59.0635 7.0691 59.0635 7.67719 59.0635 8.20928C59.0635 8.74136 59.0635 9.34945 59.0635 9.88154C58.9865 9.95755 58.9865 9.95755 58.9865 9.95755C58.9095 9.95755 58.9095 9.95755 58.9095 9.95755H58.8325C53.5961 9.95755 48.3597 9.95755 43.1233 9.95755H43.0463H42.9692C42.8922 9.95755 42.8922 9.95755 42.8922 9.95755C42.8152 9.95755 42.8152 9.95755 42.8152 9.95755C42.8152 15.6584 42.8152 21.2833 42.8152 26.9842V27.0602V27.1362C42.8152 27.1362 42.8152 27.1362 42.7382 27.2122H32.4194V39.5262H109.964V30.1767H102.726ZM102.726 30.7088H109.348C109.425 30.9368 109.425 31.849 109.348 32.305H102.726V30.7088ZM90.8669 20.7512C90.8669 14.4422 90.8669 8.20928 90.8669 1.90029C90.8669 1.90029 90.8669 1.82428 90.8669 1.74827H92.33V20.9793H90.9439C90.9439 20.9793 90.9439 20.9793 90.8669 20.9033C90.8669 20.8272 90.8669 20.8272 90.8669 20.7512ZM88.4797 1.74827C88.7878 1.67226 89.1728 1.67226 89.5578 1.74827C89.6348 1.90029 89.6348 6.53702 89.6348 11.2497C89.6348 15.9625 89.6348 20.7512 89.5578 20.9793H88.4797C88.4027 20.6752 88.4027 2.20434 88.4797 1.74827ZM86.1696 1.74827C86.4776 1.67226 86.7856 1.74827 87.1706 1.74827C87.2477 2.05232 87.2477 15.2024 87.1706 15.8105H86.1696C86.0926 15.5064 86.0926 2.28035 86.1696 1.74827ZM83.7054 1.74827H84.7835V15.8105H83.7054V1.74827ZM81.3182 1.74827H82.3963V15.8865C82.2423 15.8865 82.0112 15.8865 81.8572 15.8865C81.7032 15.8865 81.5492 15.8865 81.3182 15.8865V1.74827ZM79.162 1.74827H80.0091V15.8105C79.9321 15.8105 79.8551 15.8105 79.7781 15.8105C79.5471 15.8105 79.3931 15.8105 79.162 15.8105C79.085 15.5824 79.085 2.35636 79.162 1.74827ZM87.5557 16.4186V17.2547V18.0908C87.4787 18.1668 87.4787 18.1668 87.4787 18.1668C87.3247 18.1668 87.2477 18.1668 87.1706 18.1668C83.1663 18.1668 79.162 18.1668 75.1577 18.1668C75.0807 18.1668 75.0807 18.0908 75.0037 18.0908V16.4186C75.3117 16.3425 87.0166 16.3425 87.5557 16.4186ZM75.3117 7.0691H77.1599V15.8105H75.3117V7.0691ZM58.5244 10.4136H59.0635V12.998H58.5244V10.4136ZM57.2923 10.4136H57.8314C57.9084 10.7177 57.9084 12.542 57.8314 12.998H57.2923V10.4136ZM54.9822 10.4136H55.5982V12.998H54.9822V10.4136ZM53.8271 10.4896H54.4431C54.4431 11.3258 54.4431 12.2379 54.4431 13.074H53.8271C53.7501 12.846 53.7501 11.0217 53.8271 10.4896ZM52.749 13.6061C52.903 13.6061 52.98 13.6061 53.057 13.6061C55.0592 13.6061 56.9843 13.6061 58.9865 13.6061C59.0635 13.6061 59.0635 13.6821 59.1405 13.6821V15.9625H52.749V13.6061ZM52.749 19.003V17.6347H59.1405V19.003H52.749ZM59.1405 20.7512V27.2122H52.749V20.7512C52.903 20.6752 54.3661 20.6752 55.9062 20.6752C57.3694 20.6752 58.9095 20.6752 59.1405 20.7512ZM51.5169 27.0602C51.5169 26.9842 51.5169 26.9842 51.5169 26.9842C51.5169 26.9842 51.5169 26.9842 51.5169 26.9082C51.5169 21.5114 51.5169 16.1145 51.5169 10.6417V10.5656C51.5169 10.5656 51.5169 10.5656 51.5169 10.4896V10.4136H52.1329V10.4896V27.1362V27.2122H51.5939C51.5939 27.2122 51.5939 27.2122 51.5169 27.0602C51.5169 27.1362 51.5169 27.0602 51.5169 27.0602ZM50.2848 10.4136C50.3618 10.4136 50.3618 10.4136 50.4388 10.4136H50.5158C50.6698 10.4136 50.7468 10.4136 50.8239 10.4136H50.9009C50.9779 10.7177 50.9779 26.7562 50.9009 27.2122H50.8239H50.3618C50.2848 26.9082 50.2078 10.9457 50.2848 10.4136ZM48.0516 10.4136H48.5907V27.2122H48.0516C47.9746 26.9082 47.9746 10.9457 48.0516 10.4136ZM46.8195 10.4136H47.3586V27.2122H46.8195C46.7425 26.9082 46.7425 11.0217 46.8195 10.4136ZM44.5094 10.4136H45.0484C45.1254 10.7177 45.2024 26.6802 45.0484 27.2122H44.5094C44.4324 26.9082 44.4324 11.0977 44.5094 10.4136ZM43.5083 10.4136C43.6623 10.4136 43.7393 10.4136 43.8163 10.4136C43.9703 10.4896 43.9703 26.6802 43.8933 27.2122C43.8163 27.2122 43.6623 27.2122 43.5853 27.2122C43.5083 26.9082 43.4313 11.6298 43.5083 10.4136ZM60.6806 39.4501C60.5266 39.5262 53.7501 39.5262 46.9736 39.5262C40.197 39.5262 33.3435 39.5262 33.0355 39.4501C32.9585 39.1461 32.9585 28.4284 33.0355 27.8203H33.1125H60.6806V39.4501ZM61.7587 38.9181H61.2197V27.2122H59.7565V7.0691H61.7587C61.7587 7.22112 61.8357 15.0503 61.8357 22.9556C61.8357 30.8608 61.7587 38.69 61.7587 38.9181ZM62.0667 3.34452H75.2347V4.56071H62.0667V3.34452ZM75.0037 22.8796C75.0807 22.8796 75.0807 22.8796 75.0037 22.8796L75.0807 22.8035C75.1577 22.8035 75.1577 22.8035 75.2347 22.8035C78.0069 22.8035 80.7792 22.8035 83.5514 22.8035C83.6284 22.8035 83.6284 22.8035 83.7054 22.8035C83.7824 23.1076 83.7824 24.7038 83.7054 25.2359C83.7054 25.2359 83.7054 25.2359 83.6284 25.2359V25.3119C83.4744 25.3119 78.161 25.3119 75.9278 25.2359C75.3887 25.2359 75.0807 25.2359 75.0037 25.2359V22.8796ZM66.071 7.37315C66.071 17.8628 66.071 28.2764 66.071 38.766C66.071 38.766 66.071 38.842 65.994 38.9181H62.6828V7.0691H65.994C66.071 7.0691 66.071 7.0691 66.071 7.0691C66.071 7.14511 66.071 7.29713 66.071 7.37315ZM70.3064 38.9181C70.2293 38.9181 69.9983 38.9181 69.6903 38.9941C69.3823 38.9941 69.0743 38.9941 68.6892 38.9941C67.9962 38.9941 67.2261 38.9941 66.9181 38.9181L66.8411 7.0691H66.9181C67.9962 6.99309 69.1513 7.0691 70.2293 7.0691C70.3063 7.37315 70.3834 38.31 70.3064 38.9181ZM74.3877 38.9181C74.2337 38.9941 73.5406 38.9941 72.7705 38.9941C72.0005 38.9941 71.2304 38.9941 71.0764 38.9181V7.0691H74.4647C74.4647 17.7108 74.3877 28.3524 74.3877 38.9181ZM75.0037 33.5972H83.7054V36.0296V36.1056H75.0037C74.9267 35.8016 74.9267 34.2053 75.0037 33.5972ZM83.7824 39.2981C83.4744 39.3741 75.4657 39.3741 75.0037 39.2981V37.1698H83.7824C83.7824 37.9299 83.7824 38.614 83.7824 39.2981ZM83.7824 32.4571H75.0037V30.0247C75.1577 29.9487 77.2369 29.9487 79.316 29.9487C81.3952 29.9487 83.5514 29.9487 83.7824 30.0247V32.4571ZM83.7824 28.8845C83.4744 28.9605 75.4657 28.9605 75.0037 28.8845V26.4521C75.1577 26.3761 77.2369 26.3761 79.316 26.3761C81.3952 26.3761 83.5514 26.3761 83.7824 26.4521V28.8845ZM83.8594 21.6634H83.7824H75.0807H75.0037V19.307H75.0807V19.231C75.3117 19.155 86.7086 19.155 87.5557 19.231C87.5557 19.535 87.5557 19.7631 87.5557 20.0671C87.5557 20.2952 87.5557 20.5992 87.5557 20.9793H83.9364C83.8594 21.2073 83.8594 21.4353 83.8594 21.6634ZM85.0915 27.9724V27.4403H97.4124V27.9724H85.0915ZM97.4124 31.7729V32.153V32.229C97.1044 32.305 85.8615 32.381 85.0915 32.305V32.229V31.849V31.7729C85.3995 31.6969 95.2563 31.6969 97.1814 31.7729C97.2584 31.7729 97.3354 31.7729 97.4124 31.7729ZM97.4894 36.2576H85.1685H85.0915V35.7256H85.1685H97.4124H97.4894V36.2576ZM97.4894 23.4116V23.8677V23.9437H85.1685V23.8677V23.4116V23.3356L97.4894 23.4116ZM102.11 38.538C102.11 38.766 102.11 38.9181 102.11 38.9181H98.4135V37.3218H98.4905V37.1698H100.339V32.381C99.7226 32.305 99.0296 32.381 98.4135 32.305C98.5675 32.229 98.7215 32.229 98.8755 32.229C98.7215 32.229 98.5675 32.229 98.4905 32.153C98.7985 32.001 99.1066 32.077 99.4146 32.077C99.7226 32.077 99.9536 32.077 100.262 32.077C100.339 31.3169 100.416 27.8203 100.262 27.3643C100.185 27.3643 100.031 27.3643 99.9536 27.3643C99.5686 27.3643 99.1066 27.3643 98.7215 27.3643C98.6445 27.3643 98.4905 27.4403 98.4135 27.2122C98.4905 27.2122 98.4905 27.1362 98.5675 27.1362L98.4905 27.0602C98.7985 26.9082 99.1066 26.9842 99.4146 26.9842C99.7226 26.9842 99.9536 26.9842 100.262 26.9842C100.339 26.1481 100.339 22.6515 100.262 22.2715H98.4135C98.3365 22.1194 98.4135 22.0434 98.4905 22.0434C98.4905 21.8914 98.5675 21.8914 98.6445 21.8914C99.0296 21.8914 99.4916 21.8914 99.8766 21.8914C100.031 21.8914 100.108 21.8914 100.262 21.8914V12.0099C99.9536 11.9339 98.5675 11.9339 97.8745 12.0099C97.8745 12.846 97.8745 18.3949 97.8745 19.003C97.8745 19.6871 97.8745 20.2952 97.8745 20.9793H97.7975V21.0553H96.1803V17.1787H93.7161V21.0553H93.6391H92.9461H92.8691C92.7921 20.7512 92.7921 12.2379 92.8691 11.7058H92.9461H102.033H102.11C102.187 12.0099 102.187 35.2695 102.11 38.538ZM109.425 38.842L102.803 38.9181V38.842V35.4215V35.3455C103.111 35.2695 108.963 35.2695 109.425 35.3455V38.842ZM109.348 33.5972V34.0533C109.117 34.1293 103.342 34.1293 102.726 34.0533C102.726 33.9013 102.726 33.7493 102.726 33.5972C102.803 33.5212 102.803 33.5212 102.803 33.5212C102.88 33.5212 102.957 33.5212 103.034 33.5212C105.113 33.5212 107.192 33.5212 109.348 33.5972C109.348 33.5212 109.348 33.5972 109.425 33.5972H109.348Z" fill="white"/>
<path d="M60.5265 30.8608V29.3406H33.4204V30.9368C33.9595 31.0888 60.2185 31.0128 60.5265 30.8608Z" fill="white"/>
<path d="M60.4495 37.8539V36.3336C59.7564 36.2576 33.7284 36.2576 33.4204 36.3336V37.8539C34.1905 37.9299 60.2185 37.9299 60.4495 37.8539Z" fill="white"/>
<path d="M60.4495 34.3574V32.8372H33.4204V34.4334C34.1905 34.5094 60.2185 34.5094 60.4495 34.3574Z" fill="white"/>
<path d="M131.141 38.994H10.5498V40.0582H131.141V38.994Z" fill="white"/>
<path d="M10.5498 76.4679V75.3278H131.141V76.4679" fill="white"/>
</svg>
